<?xml version="1.0" encoding="UTF-8" standalone="no"?>
<!DOCTYPE svg PUBLIC "-//W3C//DTD SVG 1.1//EN" "http://www.w3.org/Graphics/SVG/1.1/DTD/svg11.dtd">
<svg width="100%" height="100%" viewBox="0 0 96 96" version="1.1" xmlns="http://www.w3.org/2000/svg" xmlns:xlink="http://www.w3.org/1999/xlink" xml:space="preserve" xmlns:serif="http://www.serif.com/" style="fill-rule:evenodd;clip-rule:evenodd;stroke-linejoin:round;stroke-miterlimit:2;">
    <g id="g3023" transform="matrix(1,0,0,1,20.7975,-1023.57)">
        <g id="path3025" transform="matrix(0.168342,0,0,0.168342,22.4141,885.068)">
            <path d="M-126.267,1038.85C-103.53,1089.29 -110.475,1141.6 -141.777,1155.72C-173.08,1169.84 -216.887,1140.41 -239.622,1089.98C-262.359,1039.55 -255.415,987.235 -224.112,973.117C-192.809,959.003 -149.004,988.434 -126.267,1038.85Z" style="fill:rgb(66,35,17);"/>
        </g>
        <g id="path3027" transform="matrix(0.168342,0,0,0.168342,22.4141,885.068)">
            <path d="M183.155,1038.85C160.417,1089.29 167.362,1141.6 198.667,1155.72C229.97,1169.84 273.773,1140.41 296.513,1089.98C319.247,1039.55 312.302,987.235 281,973.117C249.699,959.003 205.892,988.434 183.155,1038.85Z" style="fill:rgb(66,35,17);"/>
        </g>
        <g id="path3029" transform="matrix(0.168342,0,0,0.168342,22.4141,885.068)">
            <path d="M6.786,937.757C18.44,991.826 0.675,1041.52 -32.893,1048.76C-66.458,1055.99 -103.118,1018.02 -114.771,963.956C-126.424,909.888 -108.659,860.192 -75.092,852.959C-41.525,845.723 -4.867,883.688 6.786,937.757Z" style="fill:rgb(66,35,17);"/>
        </g>
        <g id="path3031" transform="matrix(0.168342,0,0,0.168342,22.4141,885.068)">
            <path d="M49.268,937.803C37.623,991.871 55.376,1041.57 88.941,1048.8C122.509,1056.04 159.167,1018.07 170.819,964.003C182.473,909.934 164.71,860.238 131.141,853.005C97.573,845.771 60.916,883.734 49.268,937.803Z" style="fill:rgb(66,35,17);"/>
        </g>
        <g id="path3033" transform="matrix(0.168342,0,0,0.168342,22.4141,885.068)">
            <path d="M-35.228,1118.5C-43.42,1132.65 -81.384,1179.49 -107.642,1195.47C-133.898,1211.45 -166.434,1234.85 -160.974,1288.58C-155.517,1342.32 -100.399,1365.32 -64.114,1363.28C-27.828,1361.25 40.585,1354.57 89.429,1361.34C138.27,1368.11 199.915,1362.98 214.351,1311.53C228.787,1260.08 196.501,1227.3 171.307,1208.7C146.114,1190.11 104.042,1134.5 91.08,1108.97C78.12,1083.45 12.153,1036.71 -35.227,1118.5Z" style="fill:rgb(66,35,17);"/>
        </g>
    </g>
</svg>
